<svg width="1152" height="336" xmlns="http://www.w3.org/2000/svg" xmlns:xlink="http://www.w3.org/1999/xlink" overflow="hidden"><defs><clipPath id="clip0"><rect x="0" y="0" width="1152" height="336"/></clipPath></defs><g clip-path="url(#clip0)"><rect x="0" y="0" width="1152" height="336" fill="#FFFFFF"/><path d="M678 290C663.641 290 652 284.904 652 278.617L652 175.383C652 169.096 640.359 164 626 164 640.359 164 652 158.904 652 152.617L652 49.3833C652 43.0965 663.641 38 678 38" stroke="#000000" stroke-width="6" stroke-miterlimit="8" fill="none" fill-rule="evenodd"/><path d="M681 59.0001C681 54.5818 684.582 51 689 51L789 51C793.418 51 797 54.5818 797 59.0001L797 90.9999C797 95.4182 793.418 99 789 99L689 99C684.582 99 681 95.4182 681 90.9999Z" stroke="#000000" stroke-width="2" stroke-miterlimit="8" fill="#0A24CC" fill-rule="evenodd"/><text fill="#FFFFFF" font-family="Arial,Arial_MSFontService,sans-serif" font-weight="700" font-size="21" transform="translate(698.568 83)">Material</text><path d="M681 120C681 115.582 684.582 112 689 112L789 112C793.418 112 797 115.582 797 120L797 152C797 156.418 793.418 160 789 160L689 160C684.582 160 681 156.418 681 152Z" stroke="#000000" stroke-width="2" stroke-miterlimit="8" fill="#FFC000" fill-rule="evenodd"/><text fill="#FFFFFF" font-family="Arial,Arial_MSFontService,sans-serif" font-weight="700" font-size="21" transform="translate(697.568 144)">Process </text><path d="M681 179C681 174.582 684.582 171 689 171L789 171C793.418 171 797 174.582 797 179L797 211C797 215.418 793.418 219 789 219L689 219C684.582 219 681 215.418 681 211Z" stroke="#000000" stroke-width="2" stroke-miterlimit="8" fill="#067F10" fill-rule="evenodd"/><text fill="#FFFFFF" font-family="Arial,Arial_MSFontService,sans-serif" font-weight="700" font-size="21" transform="translate(715.902 203)">Data </text><path d="M681 239C681 234.582 684.582 231 689 231L789 231C793.418 231 797 234.582 797 239L797 271C797 275.418 793.418 279 789 279L689 279C684.582 279 681 275.418 681 271Z" stroke="#000000" stroke-width="2" stroke-miterlimit="8" fill="#9A3333" fill-rule="evenodd"/><text fill="#FFFFFF" font-family="Arial,Arial_MSFontService,sans-serif" font-weight="700" font-size="21" transform="translate(716.402 263)">Sim. </text><path d="M133 161.167 167.02 161.167 167.02 166.833 133 166.833ZM164.187 155.5 181.187 164 164.187 172.5Z"/><path d="M296 161.167 330.02 161.167 330.02 166.833 296 166.833ZM327.187 155.5 344.187 164 327.187 172.5Z"/><path d="M459 161.167 493.02 161.167 493.02 166.833 459 166.833ZM490.187 155.5 507.187 164 490.187 172.5Z"/><path d="M0.936376-2.67413 137.349 45.0924 135.477 50.4406-0.936376 2.67413ZM136.548 38.8077 149.784 52.4484 130.93 54.8525Z" transform="matrix(1 0 0 -1 252 240.448)"/><path d="M241.743 187.289 251.789 226.024 246.304 227.447 236.257 188.711ZM256.563 221.859 252.603 240.448 240.107 226.127Z"/><path d="M75.805 185.283 239.212 233.707 237.602 239.14 74.195 190.717ZM238.105 227.469 251.99 240.448 233.275 243.768Z"/><path d="M18 148C18 143.582 21.5818 140 26.0002 140L125 140C129.418 140 133 143.582 133 148L133 180C133 184.418 129.418 188 125 188L26.0002 188C21.5818 188 18 184.418 18 180Z" stroke="#000000" stroke-width="2" stroke-miterlimit="8" fill="#9100B8" fill-rule="evenodd"/><text fill="#FFFFFF" font-family="Arial,Arial_MSFontService,sans-serif" font-weight="700" font-size="21" transform="translate(51.4515 172)">User</text><path d="M181 148C181 143.582 184.582 140 189 140L288 140C292.418 140 296 143.582 296 148L296 180C296 184.418 292.418 188 288 188L189 188C184.582 188 181 184.418 181 180Z" stroke="#000000" stroke-width="2" stroke-miterlimit="8" fill="#FB7623" fill-rule="evenodd"/><text fill="#FFFFFF" font-family="Arial,Arial_MSFontService,sans-serif" font-weight="700" font-size="21" transform="translate(206.505 172)">Group </text><path d="M344 148C344 143.582 347.582 140 352 140L451 140C455.418 140 459 143.582 459 148L459 180C459 184.418 455.418 188 451 188L352 188C347.582 188 344 184.418 344 180Z" stroke="#000000" stroke-width="2" stroke-miterlimit="8" fill="#00B0F0" fill-rule="evenodd"/><text fill="#FFFFFF" font-family="Arial,Arial_MSFontService,sans-serif" font-weight="700" font-size="21" transform="translate(378.725 172)">Coll.</text><path d="M508 148C508 143.582 511.582 140 516 140L615 140C619.418 140 623 143.582 623 148L623 180C623 184.418 619.418 188 615 188L516 188C511.582 188 508 184.418 508 180Z" stroke="#000000" stroke-width="2" stroke-miterlimit="8" fill="#D9D9D9" fill-rule="evenodd"/><text font-family="Arial,Arial_MSFontService,sans-serif" font-weight="700" font-size="21" transform="translate(539.195 172)">Expt. </text><path d="M195 248C195 243.582 198.582 240 203 240L302 240C306.418 240 310 243.582 310 248L310 280C310 284.418 306.418 288 302 288L203 288C198.582 288 195 284.418 195 280Z" stroke="#000000" stroke-width="2" stroke-miterlimit="8" fill="#595959" fill-rule="evenodd"/><text fill="#FFFFFF" font-family="Arial,Arial_MSFontService,sans-serif" font-weight="700" font-size="21" transform="translate(229.024 273)">Pub. </text><path d="M1002 155C1002 150.582 1005.58 147 1010 147L1138 147C1142.42 147 1146 150.582 1146 155L1146 187C1146 191.418 1142.42 195 1138 195L1010 195C1005.58 195 1002 191.418 1002 187Z" stroke="#067F10" stroke-width="6" stroke-miterlimit="8" fill="#FFFFFF" fill-rule="evenodd"/><text font-family="Arial,Arial_MSFontService,sans-serif" font-weight="700" font-size="21" transform="translate(1023.21 179)">Data Lake </text><path d="M1002 215C1002 210.582 1005.58 207 1010 207L1138 207C1142.42 207 1146 210.582 1146 215L1146 247C1146 251.418 1142.42 255 1138 255L1010 255C1005.58 255 1002 251.418 1002 247Z" stroke="#067F10" stroke-width="6" stroke-miterlimit="8" fill="#FFFFFF" fill-rule="evenodd"/><text font-family="Arial,Arial_MSFontService,sans-serif" font-weight="700" font-size="21" transform="translate(1015.46 239)">Model Lake </text><path d="M0.33461-2.81351 191.227 19.8893 190.558 25.5163-0.33461 2.81351ZM189.083 13.9277 204.96 24.3759 187.075 30.8087Z" transform="matrix(1 0 0 -1 797 195.376)"/><path d="M797.483 192.208 988.484 225.276 987.517 230.859 796.517 197.792ZM986.659 219.209 1001.96 230.484 983.759 235.96Z"/><path d="M402 281C402 276.582 405.582 273 410 273L578 273C582.418 273 586 276.582 586 281L586 313C586 317.418 582.418 321 578 321L410 321C405.582 321 402 317.418 402 313Z" stroke="#000000" stroke-width="4" stroke-miterlimit="8" fill="#FFFFFF" fill-rule="evenodd"/><text font-family="Arial,Arial_MSFontService,sans-serif" font-weight="700" font-size="21" transform="translate(414.745 305)">Version Control</text><path d="M504 59.0001C504 54.5818 507.582 51 512 51L622 51C626.418 51 630 54.5818 630 59.0001L630 90.9999C630 95.4182 626.418 99 622 99L512 99C507.582 99 504 95.4182 504 90.9999Z" stroke="#000000" stroke-width="4" stroke-miterlimit="8" fill-rule="evenodd"/><text fill="#FFFFFF" font-family="Arial,Arial_MSFontService,sans-serif" font-weight="700" font-size="21" transform="translate(519.257 83)">Inventory</text><path d="M633 72.1667 667.02 72.1667 667.02 77.8334 633 77.8333ZM664.187 66.5001 681.187 75.0001 664.187 83.5001Z"/><path d="M1.52246-2.38954 91.9895 55.2503 88.9446 60.0294-1.52246 2.38954ZM92.6448 48.9487 102.415 65.2521 83.51 63.2859Z" transform="matrix(1 0 0 -1 402 140.252)"/><path d="M0.675503-2.75163 252.719 59.1229 251.368 64.6262-0.675503 2.75163ZM251.318 52.9442 265.801 65.2521 247.265 69.4539Z" transform="matrix(1 0 0 -1 239 140.252)"/><path d="M966 38.8334C966 36.164 968.164 34 970.833 34L1067.17 34C1069.84 34 1072 36.164 1072 38.8334L1072 58.1666C1072 60.836 1069.84 63 1067.17 63L970.833 63C968.164 63 966 60.836 966 58.1666Z" stroke="#000000" stroke-width="2" stroke-miterlimit="8" stroke-dasharray="6 2" fill="#D9D9D9" fill-rule="evenodd"/><text font-family="Arial,Arial_MSFontService,sans-serif" font-weight="700" font-size="16" transform="translate(998.212 55)">Cond</text><path d="M966 73.8334C966 71.164 968.164 69 970.833 69L1067.17 69C1069.84 69 1072 71.164 1072 73.8334L1072 93.1666C1072 95.836 1069.84 98 1067.17 98L970.833 98C968.164 98 966 95.836 966 93.1666Z" stroke="#000000" stroke-width="2" stroke-miterlimit="8" stroke-dasharray="6 2" fill="#D9D9D9" fill-rule="evenodd"/><text font-family="Arial,Arial_MSFontService,sans-serif" font-weight="700" font-size="16" transform="translate(1000.46 90)">Prop</text><path d="M828 65.8334C828 63.164 830.164 61 832.833 61L929.167 61C931.836 61 934 63.164 934 65.8334L934 85.1666C934 87.836 931.836 90 929.167 90L832.833 90C830.164 90 828 87.836 828 85.1666Z" stroke="#000000" stroke-width="2" stroke-miterlimit="8" stroke-dasharray="6 2" fill="#8E9DF9" fill-rule="evenodd"/><text font-family="Arial,Arial_MSFontService,sans-serif" font-weight="700" font-size="16" transform="translate(864.609 82)">Iden</text><path d="M828 126.833C828 124.164 830.164 122 832.833 122L929.167 122C931.836 122 934 124.164 934 126.833L934 146.167C934 148.836 931.836 151 929.167 151L832.833 151C830.164 151 828 148.836 828 146.167Z" stroke="#000000" stroke-width="2" stroke-miterlimit="8" stroke-dasharray="6 2" fill="#FFE699" fill-rule="evenodd"/><text font-family="Arial,Arial_MSFontService,sans-serif" font-weight="700" font-size="16" transform="translate(865.943 143)">Ingr</text><path d="M836 240C836 237.239 838.239 235 841 235L937 235C939.761 235 942 237.239 942 240L942 260C942 262.761 939.761 265 937 265L841 265C838.239 265 836 262.761 836 260Z" stroke="#000000" stroke-width="2" stroke-miterlimit="8" stroke-dasharray="6 2" fill="#B7FCBD" fill-rule="evenodd"/><text font-family="Arial,Arial_MSFontService,sans-serif" font-weight="700" font-size="16" transform="translate(875.32 256)">File</text><path d="M836.99 250.184 797.5 195.5" stroke="#000000" stroke-width="3" stroke-miterlimit="8" stroke-dasharray="9 3" fill="none" fill-rule="evenodd"/><path d="M103 45.0002C103 40.5818 106.582 37 111 37L236 37C240.418 37 244 40.5818 244 45.0002L244 76.9998C244 81.4182 240.418 85 236 85L111 85C106.582 85 103 81.4182 103 76.9998Z" stroke="#000000" stroke-width="4" stroke-miterlimit="8" stroke-dasharray="12 4" fill="#FFCCCC" fill-rule="evenodd"/><text font-family="Arial,Arial_MSFontService,sans-serif" font-weight="700" font-size="21" transform="translate(133.182 69)">CriptDB</text><path d="M828.947 136.88 797.5 136.5" stroke="#000000" stroke-width="3" stroke-miterlimit="8" stroke-dasharray="9 3" fill="none" fill-rule="evenodd"/><path d="M828.947 75.9906 797.5 75.5001" stroke="#000000" stroke-width="3" stroke-miterlimit="8" stroke-dasharray="9 3" fill="none" fill-rule="evenodd"/><path d="M966 108.833C966 106.164 968.164 104 970.833 104L1067.17 104C1069.84 104 1072 106.164 1072 108.833L1072 128.167C1072 130.836 1069.84 133 1067.17 133L970.833 133C968.164 133 966 130.836 966 128.167Z" stroke="#000000" stroke-width="2" stroke-miterlimit="8" stroke-dasharray="6 2" fill="#D9D9D9" fill-rule="evenodd"/><text font-family="Arial,Arial_MSFontService,sans-serif" font-weight="700" font-size="16" transform="translate(1003.13 125)">Unit</text></g></svg>