<svg width="1440" height="576" xmlns="http://www.w3.org/2000/svg" xmlns:xlink="http://www.w3.org/1999/xlink" overflow="hidden"><defs><clipPath id="clip0"><rect x="0" y="0" width="1440" height="576"/></clipPath></defs><g clip-path="url(#clip0)"><rect x="0" y="0" width="1440" height="576" fill="#FFFFFF"/><path d="M565.959 133.953 813.175 370.557 809.257 374.651 562.041 138.047ZM815.046 364.504 821.45 382.399 803.292 376.785Z" fill="#A6A6A6"/><path d="M565.665 133.708 811.655 312.426 808.324 317.01 562.335 138.292ZM812.693 306.176 821.45 323.045 802.701 319.93Z" fill="#A6A6A6"/><path d="M565.259 133.462 810.018 254.858 807.5 259.935 562.741 138.538ZM809.997 248.523 821.45 263.691 802.444 263.753Z" fill="#A6A6A6"/><path d="M564.727 133.262 808.485 197.965 807.031 203.442 563.273 138.738ZM807.2 191.761 821.45 204.338 802.839 208.192Z" fill="#A6A6A6"/><path d="M0.488545-2.7909 72.3146 9.78223 71.3375 15.364-0.488545 2.7909ZM70.5008 3.71189 85.7806 15.0159 67.5696 20.4573Z" fill="#A6A6A6" transform="matrix(1 0 0 -1 564 136.016)"/><path d="M1.903-2.09914 78.7113 67.5324 74.9053 71.7307-1.903 2.09914ZM80.4182 61.4312 87.304 79.1466 69.0002 74.026Z" fill="#A6A6A6" transform="matrix(1 0 0 -1 564 136.147)"/><path d="M1039.82 236.924 945.908 156.374 949.598 152.073 1043.51 232.623ZM944.37 162.52 937 145 955.438 149.616Z"/><path d="M820 433C801.222 433 786 430.463 786 427.334L786 240.666C786 237.537 770.778 235 752 235 770.778 235 786 232.463 786 229.334L786 42.6663C786 39.5369 801.222 37 820 37" stroke="#000000" stroke-width="4" stroke-miterlimit="8" fill="none" fill-rule="evenodd"/><path d="M643 219C643 214.582 646.582 211 651 211L751 211C755.418 211 759 214.582 759 219L759 251C759 255.418 755.418 259 751 259L651 259C646.582 259 643 255.418 643 251Z" stroke="#000000" stroke-width="2" stroke-miterlimit="8" fill="#D9D9D9" fill-rule="evenodd"/><text font-family="Arial,Arial_MSFontService,sans-serif" font-weight="700" font-size="21" transform="translate(661.898 243)">Anionic </text><path d="M822 70.0002C822 65.5818 825.582 62 830 62L929 62C933.418 62 937 65.5818 937 70.0002L937 102C937 106.418 933.418 110 929 110L830 110C825.582 110 822 106.418 822 102Z" stroke="#000000" stroke-width="2" stroke-miterlimit="8" fill="#0A24CC" fill-rule="evenodd"/><text fill="#FFFFFF" font-family="Arial,Arial_MSFontService,sans-serif" font-weight="700" font-size="19" transform="translate(842.221 81)">SecBuLi<tspan font-size="19" x="0.0800171" y="23">Solution</tspan></text><path d="M822 188C822 183.582 825.582 180 830 180L929 180C933.418 180 937 183.582 937 188L937 220C937 224.418 933.418 228 929 228L830 228C825.582 228 822 224.418 822 220Z" stroke="#000000" stroke-width="2" stroke-miterlimit="8" fill="#0A24CC" fill-rule="evenodd"/><text fill="#FFFFFF" font-family="Arial,Arial_MSFontService,sans-serif" font-weight="700" font-size="21" transform="translate(838.637 213)">Toluene</text><path d="M822 129C822 124.582 825.582 121 830 121L929 121C933.418 121 937 124.582 937 129L937 161C937 165.418 933.418 169 929 169L830 169C825.582 169 822 165.418 822 161Z" stroke="#000000" stroke-width="2" stroke-miterlimit="8" fill="#0A24CC" fill-rule="evenodd"/><text fill="#FFFFFF" font-family="Arial,Arial_MSFontService,sans-serif" font-weight="700" font-size="21" transform="translate(840.387 153)">Styrene</text><path d="M822 248C822 243.582 825.582 240 830 240L929 240C933.418 240 937 243.582 937 248L937 280C937 284.418 933.418 288 929 288L830 288C825.582 288 822 284.418 822 280Z" stroke="#000000" stroke-width="2" stroke-miterlimit="8" fill="#0A24CC" fill-rule="evenodd"/><text fill="#FFFFFF" font-family="Arial,Arial_MSFontService,sans-serif" font-weight="700" font-size="21" transform="translate(858.804 272)">THF</text><path d="M822 307C822 302.582 825.582 299 830 299L929 299C933.418 299 937 302.582 937 307L937 339C937 343.418 933.418 347 929 347L830 347C825.582 347 822 343.418 822 339Z" stroke="#000000" stroke-width="2" stroke-miterlimit="8" fill="#0A24CC" fill-rule="evenodd"/><text fill="#FFFFFF" font-family="Arial,Arial_MSFontService,sans-serif" font-weight="700" font-size="21" transform="translate(842.804 331)">nBuOH</text><path d="M822 366C822 361.582 825.582 358 830 358L929 358C933.418 358 937 361.582 937 366L937 398C937 402.418 933.418 406 929 406L830 406C825.582 406 822 402.418 822 398Z" stroke="#000000" stroke-width="2" stroke-miterlimit="8" fill="#0A24CC" fill-rule="evenodd"/><text fill="#FFFFFF" font-family="Arial,Arial_MSFontService,sans-serif" font-weight="700" font-size="21" transform="translate(848.637 391)">MeOH</text><path d="M1213 219C1213 214.582 1216.58 211 1221 211L1320 211C1324.42 211 1328 214.582 1328 219L1328 251C1328 255.418 1324.42 259 1320 259L1221 259C1216.58 259 1213 255.418 1213 251Z" stroke="#000000" stroke-width="2" stroke-miterlimit="8" fill="#0A24CC" fill-rule="evenodd"/><text fill="#FFFFFF" font-family="Arial,Arial_MSFontService,sans-serif" font-weight="700" font-size="15" transform="translate(1228.8 240)">Polystyrene</text><path d="M0 8.00021C-9.15065e-16 3.58182 3.58181-3.66026e-15 8.0002-3.66026e-15L107 0C111.418-1.83013e-15 115 3.58182 115 8.00021L115 39.9998C115 44.4182 111.418 48 107 48L8.0002 48C3.58181 48-2.74519e-15 44.4182-1.83013e-15 39.9998Z" stroke="#000000" stroke-width="2" stroke-miterlimit="8" fill="#067F10" fill-rule="evenodd" transform="matrix(-1 0 0 1 1389 318)"/><text fill="#FFFFFF" font-family="Arial,Arial_MSFontService,sans-serif" font-weight="700" font-size="21" transform="translate(1290.82 350)">1H NMR </text><path d="M0 8.00021C-9.15065e-16 3.58182 3.58181-3.66026e-15 8.0002-3.66026e-15L107 0C111.418-1.83013e-15 115 3.58182 115 8.00021L115 39.9998C115 44.4182 111.418 48 107 48L8.0002 48C3.58181 48-2.74519e-15 44.4182-1.83013e-15 39.9998Z" stroke="#000000" stroke-width="2" stroke-miterlimit="8" fill="#067F10" fill-rule="evenodd" transform="matrix(-1 0 0 1 1262 318)"/><text fill="#FFFFFF" font-family="Arial,Arial_MSFontService,sans-serif" font-weight="700" font-size="21" transform="translate(1182.48 350)">SEC</text><path d="M1040.87 237.14 949.813 210.675 951.395 205.233 1042.46 231.699ZM950.952 216.907 937 204 955.697 200.582Z"/><path d="M1039.35 236.755 942.819 99.2233 947.458 95.9679 1043.98 233.499ZM939.809 104.798 937 86 953.724 95.0318Z"/><path d="M0.754948-2.7309 91.7651 22.4285 90.2552 27.8903-0.754948 2.7309ZM90.5441 16.2118 104.665 28.9342 86.0144 32.5972Z" transform="matrix(-1 0 0 1 1041.66 235)"/><path d="M1.82686-2.16573 95.663 76.988 92.0092 81.3195-1.82686 2.16573ZM97.1509 70.8297 104.665 88.288 86.1897 83.824Z" transform="matrix(-1 0 0 1 1041.66 235)"/><path d="M2.31144-1.6386 98.7831 134.446 94.1602 137.723-2.31144 1.6386ZM101.767 128.857 104.665 147.641 87.8987 138.689Z" transform="matrix(-1 0 0 1 1041.66 235)"/><path d="M5.32637e-06-2.83333 41.6806-2.83325 41.6806 2.83341-5.32637e-06 2.83333ZM38.8473-8.49993 55.8472 0.000104987 38.8472 8.50007Z" transform="matrix(-1 0 0 1 1212.85 235)"/><path d="M1042 219C1042 214.582 1045.58 211 1050 211L1149 211C1153.42 211 1157 214.582 1157 219L1157 251C1157 255.418 1153.42 259 1149 259L1050 259C1045.58 259 1042 255.418 1042 251Z" stroke="#000000" stroke-width="2" stroke-miterlimit="8" fill="#FFC000" fill-rule="evenodd"/><text fill="#FFFFFF" font-family="Arial,Arial_MSFontService,sans-serif" font-weight="700" font-size="19" transform="translate(1065.25 230)">Anionic <tspan font-size="19" x="11.8334" y="23">Poly.</tspan></text><path d="M1271.97 256.96 1323.03 306.188 1319.1 310.268 1268.03 261.04ZM1324.93 300.142 1331.27 318.06 1313.13 312.381Z"/><path d="M1.88832-2.11235 57.3932 47.5058 53.6166 51.7305-1.88832 2.11235ZM59.0575 41.3928 66.0667 59.0597 47.7276 54.0669Z" transform="matrix(-1 0 0 1 1270.07 259)"/><path d="M145 233.167 224.131 233.167 224.131 238.833 145 238.833ZM221.298 227.5 238.298 236 221.298 244.5Z"/><path d="M354 233.167 433.281 233.167 433.281 238.833 354 238.833ZM430.447 227.5 447.447 236 430.447 244.5Z"/><path d="M21 220C21 215.582 24.5818 212 29.0002 212L137 212C141.418 212 145 215.582 145 220L145 252C145 256.418 141.418 260 137 260L29.0002 260C24.5818 260 21 256.418 21 252Z" stroke="#000000" stroke-width="2" stroke-miterlimit="8" fill="#9100B8" fill-rule="evenodd"/><text fill="#FFFFFF" font-family="Arial,Arial_MSFontService,sans-serif" font-weight="700" font-size="21" transform="translate(34.4222 244)">John Doe</text><path d="M239 220C239 215.582 242.582 212 247 212L346 212C350.418 212 354 215.582 354 220L354 252C354 256.418 350.418 260 346 260L247 260C242.582 260 239 256.418 239 252Z" stroke="#000000" stroke-width="2" stroke-miterlimit="8" fill="#FB7623" fill-rule="evenodd"/><text fill="#FFFFFF" font-family="Arial,Arial_MSFontService,sans-serif" font-weight="700" font-size="19" transform="translate(259.553 232)">tutorial_<tspan font-size="19" x="17.0867" y="23">john</tspan></text><path d="M447 220C447 215.582 450.582 212 455 212L554 212C558.418 212 562 215.582 562 220L562 252C562 256.418 558.418 260 554 260L455 260C450.582 260 447 256.418 447 252Z" stroke="#000000" stroke-width="2" stroke-miterlimit="8" fill="#00B0F0" fill-rule="evenodd"/><text fill="#FFFFFF" font-family="Arial,Arial_MSFontService,sans-serif" font-weight="700" font-size="21" transform="translate(459.784 244)">Tutorials</text><path d="M227 120C227 115.582 230.582 112 235 112L353 112C357.418 112 361 115.582 361 120L361 152C361 156.418 357.418 160 353 160L235 160C230.582 160 227 156.418 227 152Z" stroke="#000000" stroke-width="2" stroke-miterlimit="8" fill="#FB7623" fill-rule="evenodd"/><text fill="#FFFFFF" font-family="Arial,Arial_MSFontService,sans-serif" font-weight="700" font-size="19" transform="translate(260.894 132)">CRIPT_ <tspan font-size="19" x="-16.5" y="23">community</tspan></text><path d="M2.19919-1.78643 74.7426 87.5185 70.3442 91.0913-2.19919 1.78643ZM77.3546 81.7464 81.4756 100.301 64.1594 92.465Z" transform="matrix(1 0 0 -1 145 236.301)"/><path d="M440 120C440 115.582 443.582 112 448 112L556 112C560.418 112 564 115.582 564 120L564 152C564 156.418 560.418 160 556 160L448 160C443.582 160 440 156.418 440 152Z" stroke="#000000" stroke-width="4" stroke-miterlimit="8" fill-rule="evenodd"/><text fill="#FFFFFF" font-family="Arial,Arial_MSFontService,sans-serif" font-weight="700" font-size="19" transform="translate(468.113 132)">Tutorial <tspan font-size="19" x="-6.25336" y="23">Materials</tspan></text><path d="M361 133.167 425.476 133.167 425.476 138.833 361 138.833ZM422.643 127.5 439.643 136 422.643 144.5Z"/><path d="M566 233.167 630.476 233.167 630.476 238.833 566 238.833ZM627.643 227.5 644.643 236 627.643 244.5Z"/><path d="M652 41.0002C652 36.5818 655.582 33 660 33L759 33C763.418 33 767 36.5818 767 41.0002L767 72.9998C767 77.4182 763.418 81 759 81L660 81C655.582 81 652 77.4182 652 72.9998Z" stroke="#000000" stroke-width="2" stroke-miterlimit="8" fill="#0A24CC" fill-rule="evenodd"/><text fill="#FFFFFF" font-family="Arial,Arial_MSFontService,sans-serif" font-weight="700" font-size="21" transform="translate(666.741 65)">SecBuLi</text><path d="M650 105C650 100.582 653.582 97 658 97L760 97C764.418 97 768 100.582 768 105L768 137C768 141.418 764.418 145 760 145L658 145C653.582 145 650 141.418 650 137Z" stroke="#000000" stroke-width="2" stroke-miterlimit="8" fill="#0A24CC" fill-rule="evenodd"/><text fill="#FFFFFF" font-family="Arial,Arial_MSFontService,sans-serif" font-weight="700" font-size="19" transform="translate(680.905 117)">Cyclo<tspan font-size="19" x="50.6667" y="0">-</tspan><tspan font-size="19" x="-3.57996" y="23">hexane</tspan></text><path d="M13.3776 5.45542 54.9861 32.991 51.8588 37.7166 10.2503 10.181ZM9.48583 16.4702 0 0 18.8677 2.29349Z" transform="matrix(1 0 0 -1 768 121.354)"/><path d="M780.864 61.0627 823.261 83.267 820.632 88.2868 778.235 66.0826ZM778.116 72.417 767 57 786.003 57.3573Z"/><path d="M762 506C762 501.582 765.582 498 770 498L869 498C873.418 498 877 501.582 877 506L877 538C877 542.418 873.418 546 869 546L770 546C765.582 546 762 542.418 762 538Z" stroke="#000000" stroke-width="2" stroke-miterlimit="8" fill="#0A24CC" fill-rule="evenodd"/><text fill="#FFFFFF" font-family="Arial,Arial_MSFontService,sans-serif" font-weight="700" font-size="21" transform="translate(779.191 530)">Material</text><path d="M889 506C889 501.582 892.582 498 897 498L996 498C1000.42 498 1004 501.582 1004 506L1004 538C1004 542.418 1000.42 546 996 546L897 546C892.582 546 889 542.418 889 538Z" stroke="#000000" stroke-width="2" stroke-miterlimit="8" fill="#FFC000" fill-rule="evenodd"/><text fill="#FFFFFF" font-family="Arial,Arial_MSFontService,sans-serif" font-weight="700" font-size="21" transform="translate(905.096 530)">Process </text><path d="M1143 506C1143 501.582 1146.58 498 1151 498L1250 498C1254.42 498 1258 501.582 1258 506L1258 538C1258 542.418 1254.42 546 1250 546L1151 546C1146.58 546 1143 542.418 1143 538Z" stroke="#000000" stroke-width="2" stroke-miterlimit="8" fill="#9A3333" fill-rule="evenodd"/><text fill="#FFFFFF" font-family="Arial,Arial_MSFontService,sans-serif" font-weight="700" font-size="21" transform="translate(1177.74 530)">Sim. </text><path d="M1016 506C1016 501.582 1019.58 498 1024 498L1123 498C1127.42 498 1131 501.582 1131 506L1131 538C1131 542.418 1127.42 546 1123 546L1024 546C1019.58 546 1016 542.418 1016 538Z" stroke="#000000" stroke-width="2" stroke-miterlimit="8" fill="#067F10" fill-rule="evenodd"/><text fill="#FFFFFF" font-family="Arial,Arial_MSFontService,sans-serif" font-weight="700" font-size="21" transform="translate(1050.34 530)">Data </text><path d="M121 506C121 501.582 124.582 498 129 498L228 498C232.418 498 236 501.582 236 506L236 538C236 542.418 232.418 546 228 546L129 546C124.582 546 121 542.418 121 538Z" stroke="#000000" stroke-width="2" stroke-miterlimit="8" fill="#9100B8" fill-rule="evenodd"/><text fill="#FFFFFF" font-family="Arial,Arial_MSFontService,sans-serif" font-weight="700" font-size="21" transform="translate(155.065 530)">User</text><path d="M375 506C375 501.582 378.582 498 383 498L482 498C486.418 498 490 501.582 490 506L490 538C490 542.418 486.418 546 482 546L383 546C378.582 546 375 542.418 375 538Z" stroke="#000000" stroke-width="2" stroke-miterlimit="8" fill="#00B0F0" fill-rule="evenodd"/><text fill="#FFFFFF" font-family="Arial,Arial_MSFontService,sans-serif" font-weight="700" font-size="21" transform="translate(409.376 530)">Coll.</text><path d="M248 506C248 501.582 251.582 498 256 498L355 498C359.418 498 363 501.582 363 506L363 538C363 542.418 359.418 546 355 546L256 546C251.582 546 248 542.418 248 538Z" stroke="#000000" stroke-width="2" stroke-miterlimit="8" fill="#FB7623" fill-rule="evenodd"/><text fill="#FFFFFF" font-family="Arial,Arial_MSFontService,sans-serif" font-weight="700" font-size="21" transform="translate(273.637 530)">Group </text><path d="M1270 506C1270 501.582 1273.58 498 1278 498L1377 498C1381.42 498 1385 501.582 1385 506L1385 538C1385 542.418 1381.42 546 1377 546L1278 546C1273.58 546 1270 542.418 1270 538Z" stroke="#000000" stroke-width="2" stroke-miterlimit="8" fill="#595959" fill-rule="evenodd"/><text fill="#FFFFFF" font-family="Arial,Arial_MSFontService,sans-serif" font-weight="700" font-size="21" transform="translate(1304.15 530)">Pub. </text><path d="M635 506C635 501.582 638.582 498 643 498L742 498C746.418 498 750 501.582 750 506L750 538C750 542.418 746.418 546 742 546L643 546C638.582 546 635 542.418 635 538Z" stroke="#000000" stroke-width="2" stroke-miterlimit="8" fill="#D9D9D9" fill-rule="evenodd"/><text font-family="Arial,Arial_MSFontService,sans-serif" font-weight="700" font-size="21" transform="translate(666.618 530)">Expt. </text><path d="M502 506C502 501.582 505.582 498 510 498L615 498C619.418 498 623 501.582 623 506L623 538C623 542.418 619.418 546 615 546L510 546C505.582 546 502 542.418 502 538Z" stroke="#000000" stroke-width="4" stroke-miterlimit="8" fill-rule="evenodd"/><text fill="#FFFFFF" font-family="Arial,Arial_MSFontService,sans-serif" font-weight="700" font-size="21" transform="translate(514.622 530)">Inventory</text><path d="M1042 112C1042 107.582 1045.58 104 1050 104L1149 104C1153.42 104 1157 107.582 1157 112L1157 144C1157 148.418 1153.42 152 1149 152L1050 152C1045.58 152 1042 148.418 1042 144Z" stroke="#000000" stroke-width="2" stroke-miterlimit="8" fill="#0A24CC" fill-rule="evenodd"/><text fill="#FFFFFF" font-family="Arial,Arial_MSFontService,sans-serif" font-weight="700" font-size="21" transform="translate(1068 136)">Argon</text><path d="M2.83333-5.04512e-06 2.83341 44.7938-2.83325 44.7939-2.83333 5.04512e-06ZM8.50007 41.9605 0.000104987 58.9605-8.49992 41.9605Z" fill="#FB7623" transform="matrix(1 0 0 -1 1099 210.961)"/><path d="M1275 417C1275 412.582 1278.58 409 1283 409L1382 409C1386.42 409 1390 412.582 1390 417L1390 449C1390 453.418 1386.42 457 1382 457L1283 457C1278.58 457 1275 453.418 1275 449Z" stroke="#000000" stroke-width="2" stroke-miterlimit="8" fill="#0A24CC" fill-rule="evenodd"/><text fill="#FFFFFF" font-family="Arial,Arial_MSFontService,sans-serif" font-weight="700" font-size="21" transform="translate(1300.37 441)">CDCl3</text><path d="M1145.66 344.78 949.285 271.602 951.264 266.292 1147.63 339.47ZM949.962 277.901 937 264 955.898 261.971Z" fill="#FB7623"/><path d="M1334.83 365.958 1335.26 394.738 1329.6 394.823 1329.17 366.042ZM1340.89 391.821 1332.64 408.946 1323.89 392.074Z" fill="#FB7623"/></g></svg>