<svg width="1280" height="216" xmlns="http://www.w3.org/2000/svg" xmlns:xlink="http://www.w3.org/1999/xlink" overflow="hidden"><defs><clipPath id="clip0"><rect x="0" y="0" width="1280" height="216"/></clipPath></defs><g clip-path="url(#clip0)"><rect x="0" y="0" width="1280" height="216" fill="#FFFFFF"/><path d="M894 41.0002C894 36.5818 897.582 33 902 33L1001 33C1005.42 33 1009 36.5818 1009 41.0002L1009 72.9998C1009 77.4182 1005.42 81 1001 81L902 81C897.582 81 894 77.4182 894 72.9998Z" stroke="#000000" stroke-width="2" stroke-miterlimit="8" fill="#D9D9D9" fill-rule="evenodd"/><text font-family="Arial,Arial_MSFontService,sans-serif" font-weight="700" font-size="21" transform="translate(912.346 65)">Anionic </text><path d="M410.167 56.1667 489.298 56.1668 489.298 61.8334 410.167 61.8334ZM413 67.5 396 59 413 50.5Z"/><path d="M618.167 56.1667 697.447 56.1668 697.447 61.8334 618.167 61.8334ZM621 67.5 604 59 621 50.5Z"/><path d="M271 43.0002C271 38.5818 274.582 35 279 35L388 35C392.418 35 396 38.5818 396 43.0002L396 74.9998C396 79.4182 392.418 83 388 83L279 83C274.582 83 271 79.4182 271 74.9998Z" stroke="#000000" stroke-width="2" stroke-miterlimit="8" fill="#9100B8" fill-rule="evenodd"/><text fill="#FFFFFF" font-family="Arial,Arial_MSFontService,sans-serif" font-weight="700" font-size="21" transform="translate(284.87 67)">John Doe</text><path d="M489 43.0002C489 38.5818 492.582 35 497 35L596 35C600.418 35 604 38.5818 604 43.0002L604 74.9998C604 79.4182 600.418 83 596 83L497 83C492.582 83 489 79.4182 489 74.9998Z" stroke="#000000" stroke-width="2" stroke-miterlimit="8" fill="#FB7623" fill-rule="evenodd"/><text fill="#FFFFFF" font-family="Arial,Arial_MSFontService,sans-serif" font-weight="700" font-size="19" transform="translate(510.001 54)">tutorial_<tspan font-size="19" x="17.0867" y="23">john</tspan></text><path d="M698 43.0002C698 38.5818 701.582 35 706 35L805 35C809.418 35 813 38.5818 813 43.0002L813 74.9998C813 79.4182 809.418 83 805 83L706 83C701.582 83 698 79.4182 698 74.9998Z" stroke="#000000" stroke-width="2" stroke-miterlimit="8" fill="#00B0F0" fill-rule="evenodd"/><text fill="#FFFFFF" font-family="Arial,Arial_MSFontService,sans-serif" font-weight="700" font-size="21" transform="translate(710.232 67)">Tutorials</text><path d="M831.167 56.1667 895.643 56.1668 895.643 61.8334 831.167 61.8334ZM834 67.5 817 59 834 50.5Z"/><path d="M649 150C649 145.582 652.582 142 657 142L756 142C760.418 142 764 145.582 764 150L764 182C764 186.418 760.418 190 756 190L657 190C652.582 190 649 186.418 649 182Z" stroke="#000000" stroke-width="2" stroke-miterlimit="8" fill="#0A24CC" fill-rule="evenodd"/><text fill="#FFFFFF" font-family="Arial,Arial_MSFontService,sans-serif" font-weight="700" font-size="21" transform="translate(666.21 174)">Material</text><path d="M776 150C776 145.582 779.582 142 784 142L883 142C887.418 142 891 145.582 891 150L891 182C891 186.418 887.418 190 883 190L784 190C779.582 190 776 186.418 776 182Z" stroke="#000000" stroke-width="2" stroke-miterlimit="8" fill="#FFC000" fill-rule="evenodd"/><text fill="#FFFFFF" font-family="Arial,Arial_MSFontService,sans-serif" font-weight="700" font-size="21" transform="translate(792.115 174)">Process </text><path d="M1030 150C1030 145.582 1033.58 142 1038 142L1137 142C1141.42 142 1145 145.582 1145 150L1145 182C1145 186.418 1141.42 190 1137 190L1038 190C1033.58 190 1030 186.418 1030 182Z" stroke="#000000" stroke-width="2" stroke-miterlimit="8" fill="#9A3333" fill-rule="evenodd"/><text fill="#FFFFFF" font-family="Arial,Arial_MSFontService,sans-serif" font-weight="700" font-size="21" transform="translate(1064.76 174)">Sim. </text><path d="M903 150C903 145.582 906.582 142 911 142L1010 142C1014.42 142 1018 145.582 1018 150L1018 182C1018 186.418 1014.42 190 1010 190L911 190C906.582 190 903 186.418 903 182Z" stroke="#000000" stroke-width="2" stroke-miterlimit="8" fill="#067F10" fill-rule="evenodd"/><text fill="#FFFFFF" font-family="Arial,Arial_MSFontService,sans-serif" font-weight="700" font-size="21" transform="translate(937.354 174)">Data </text><path d="M8 150C8 145.582 11.5818 142 16.0002 142L115 142C119.418 142 123 145.582 123 150L123 182C123 186.418 119.418 190 115 190L16.0002 190C11.5818 190 8 186.418 8 182Z" stroke="#000000" stroke-width="2" stroke-miterlimit="8" fill="#9100B8" fill-rule="evenodd"/><text fill="#FFFFFF" font-family="Arial,Arial_MSFontService,sans-serif" font-weight="700" font-size="21" transform="translate(42.0836 174)">User</text><path d="M262 150C262 145.582 265.582 142 270 142L369 142C373.418 142 377 145.582 377 150L377 182C377 186.418 373.418 190 369 190L270 190C265.582 190 262 186.418 262 182Z" stroke="#000000" stroke-width="2" stroke-miterlimit="8" fill="#00B0F0" fill-rule="evenodd"/><text fill="#FFFFFF" font-family="Arial,Arial_MSFontService,sans-serif" font-weight="700" font-size="21" transform="translate(296.395 174)">Coll.</text><path d="M135 150C135 145.582 138.582 142 143 142L242 142C246.418 142 250 145.582 250 150L250 182C250 186.418 246.418 190 242 190L143 190C138.582 190 135 186.418 135 182Z" stroke="#000000" stroke-width="2" stroke-miterlimit="8" fill="#FB7623" fill-rule="evenodd"/><text fill="#FFFFFF" font-family="Arial,Arial_MSFontService,sans-serif" font-weight="700" font-size="21" transform="translate(160.656 174)">Group </text><path d="M1157 150C1157 145.582 1160.58 142 1165 142L1264 142C1268.42 142 1272 145.582 1272 150L1272 182C1272 186.418 1268.42 190 1264 190L1165 190C1160.58 190 1157 186.418 1157 182Z" stroke="#000000" stroke-width="2" stroke-miterlimit="8" fill="#595959" fill-rule="evenodd"/><text fill="#FFFFFF" font-family="Arial,Arial_MSFontService,sans-serif" font-weight="700" font-size="21" transform="translate(1191.17 174)">Pub. </text><path d="M522 150C522 145.582 525.582 142 530 142L629 142C633.418 142 637 145.582 637 150L637 182C637 186.418 633.418 190 629 190L530 190C525.582 190 522 186.418 522 182Z" stroke="#000000" stroke-width="2" stroke-miterlimit="8" fill="#D9D9D9" fill-rule="evenodd"/><text font-family="Arial,Arial_MSFontService,sans-serif" font-weight="700" font-size="21" transform="translate(553.637 174)">Expt. </text><path d="M389 150C389 145.582 392.582 142 397 142L502 142C506.418 142 510 145.582 510 150L510 182C510 186.418 506.418 190 502 190L397 190C392.582 190 389 186.418 389 182Z" stroke="#000000" stroke-width="4" stroke-miterlimit="8" fill-rule="evenodd"/><text fill="#FFFFFF" font-family="Arial,Arial_MSFontService,sans-serif" font-weight="700" font-size="21" transform="translate(401.641 174)">Inventory</text></g></svg>