<svg width="1152" height="192" xmlns="http://www.w3.org/2000/svg" xmlns:xlink="http://www.w3.org/1999/xlink" overflow="hidden"><defs><clipPath id="clip0"><rect x="0" y="0" width="1152" height="192"/></clipPath></defs><g clip-path="url(#clip0)"><rect x="0" y="0" width="1152" height="192" fill="#FFFFFF"/><text fill="#FFFFFF" font-family="Arial,Arial_MSFontService,sans-serif" font-weight="700" font-size="37" transform="translate(25.5979 60)">Example of CRIPT Data Schema</text><path d="M140 75.3334C140 71.8356 142.836 69 146.333 69L229.667 69C233.164 69 236 71.8356 236 75.3334L236 100.667C236 104.164 233.164 107 229.667 107L146.333 107C142.836 107 140 104.164 140 100.667Z" stroke="#000000" stroke-width="2" stroke-miterlimit="8" fill="#FB7623" fill-rule="evenodd"/><text fill="#FFFFFF" font-family="Arial,Arial_MSFontService,sans-serif" font-weight="700" font-size="16" transform="translate(164.372 94)">Group </text><path d="M103.5 87.0001 133.206 87.0001 133.206 90.0001 103.5 90.0001ZM131.706 84.0001 140.706 88.5002 131.706 93.0001Z"/><path d="M274 75.3334C274 71.8356 276.836 69 280.333 69L363.667 69C367.164 69 370 71.8356 370 75.3334L370 100.667C370 104.164 367.164 107 363.667 107L280.333 107C276.836 107 274 104.164 274 100.667Z" stroke="#000000" stroke-width="2" stroke-miterlimit="8" fill="#00B0F0" fill-rule="evenodd"/><text fill="#FFFFFF" font-family="Arial,Arial_MSFontService,sans-serif" font-weight="700" font-size="16" transform="translate(304.244 94)">Coll.</text><path d="M236.5 87.0001 266.206 87.0001 266.206 90.0001 236.5 90.0001ZM264.706 84.0001 273.706 88.5002 264.706 93.0001Z"/><path d="M140 142.5C140 138.91 142.91 136 146.5 136L229.5 136C233.09 136 236 138.91 236 142.5L236 168.5C236 172.09 233.09 175 229.5 175L146.5 175C142.91 175 140 172.09 140 168.5Z" stroke="#000000" stroke-width="2" stroke-miterlimit="8" fill="#595959" fill-rule="evenodd"/><text fill="#FFFFFF" font-family="Arial,Arial_MSFontService,sans-serif" font-weight="700" font-size="16" transform="translate(171.039 162)">Pub. </text><path d="M55.8238 106.035 181.706 133.864 181.059 136.793 55.1763 108.965ZM180.889 130.611 188.706 136.948 178.946 139.399Z"/><path d="M0.323785-1.46464 126.206 26.364 125.559 29.2933-0.323785 1.46464ZM125.389 23.1109 133.206 29.4476 123.446 31.8988Z" transform="matrix(1 0 0 -1 188.5 136.948)"/><path d="M636.5 87.0001 666.206 87.0001 666.206 90.0001 636.5 90.0001ZM664.706 84.0001 673.706 88.5002 664.706 93.0001Z"/><path d="M370.5 87.0001 400.206 87.0001 400.206 90.0001 370.5 90.0001ZM398.706 84.0001 407.706 88.5002 398.706 93.0001Z"/><path d="M806 75.3334C806 71.8356 808.836 69 812.333 69L895.667 69C899.164 69 902 71.8356 902 75.3334L902 100.667C902 104.164 899.164 107 895.667 107L812.333 107C808.836 107 806 104.164 806 100.667Z" stroke="#000000" stroke-width="2" stroke-miterlimit="8" fill="#9A3333" fill-rule="evenodd"/><text fill="#FFFFFF" font-family="Arial,Arial_MSFontService,sans-serif" font-weight="700" font-size="16" transform="translate(826.066 94)">Sample </text><path d="M940 75.3334C940 71.8356 942.836 69 946.333 69L1029.67 69C1033.16 69 1036 71.8356 1036 75.3334L1036 100.667C1036 104.164 1033.16 107 1029.67 107L946.333 107C942.836 107 940 104.164 940 100.667Z" stroke="#000000" stroke-width="2" stroke-miterlimit="8" fill="#067F10" fill-rule="evenodd"/><text fill="#FFFFFF" font-family="Arial,Arial_MSFontService,sans-serif" font-weight="700" font-size="16" transform="translate(970.439 94)">Data </text><path d="M769.5 87.0001 799.206 87.0001 799.206 90.0001 769.5 90.0001ZM797.706 84.0001 806.706 88.5002 797.706 93.0001Z"/><path d="M902.5 87.0001 932.206 87.0001 932.206 90.0001 902.5 90.0001ZM930.706 84.0001 939.706 88.5002 930.706 93.0001Z"/><path d="M503.5 87.0001 533.206 87.0001 533.206 90.0001 503.5 90.0001ZM531.706 84.0001 540.706 88.5002 531.706 93.0001Z"/><path d="M507.413 80.4669 530.683 55.9719 538.175 54.0001 717.656 54.0001 724.422 61.1224 722.247 63.1887 715.924 56.5332 717.012 57.0001 538.37 57.0001 538.751 56.9507 531.858 58.7646 532.564 58.3471 509.588 82.5332ZM725.564 57.9687 728.5 67.5931 719.039 64.1674Z"/><path d="M500.435 86.4443 537.595 48.9385 549.241 46.0001 836.692 46.0001 850.287 59.7212 848.156 61.8327 835.001 48.5558 836.067 49.0001 549.427 49.0001 549.794 48.9545 538.734 51.7452 539.432 51.3465 502.566 88.5558ZM851.362 56.5442 854.5 66.1047 844.969 62.8786Z"/><path d="M492.448 94.4307 543.812 43.9092 559.71 40.0001 957.579 40.0001 978.205 60.2877 976.101 62.4265 955.913 42.5695 956.965 43.0001 559.892 43.0001 560.25 42.9567 544.929 46.7241 545.622 46.3369 494.552 96.5694ZM979.239 57.097 982.5 66.6163 972.928 63.5134Z"/><path d="M407 75.3334C407 71.8356 409.836 69 413.333 69L496.667 69C500.164 69 503 71.8356 503 75.3334L503 100.667C503 104.164 500.164 107 496.667 107L413.333 107C409.836 107 407 104.164 407 100.667Z" stroke="#000000" stroke-width="2" stroke-miterlimit="8" fill="#D9D9D9" fill-rule="evenodd"/><text font-family="Arial,Arial_MSFontService,sans-serif" font-weight="700" font-size="16" transform="translate(430.89 94)">Exper<tspan font-size="16" x="43.4533" y="0">. </tspan></text><path d="M-1.00345 27.8851 29.262 0.645933 38.7994-1.5 272.589-1.5 282.429 7.35618 280.422 9.58605 271.01 1.11494 272.013 1.5 38.9661 1.5 39.2954 1.46341 30.3032 3.48666 30.9774 3.13819 1.00345 30.1149ZM283.321 4.12286 287 13.4884 277.3 10.8125Z" transform="matrix(1 0 0 -1 701.5 124.5)"/><path d="M-1.15728 57.0457 43.622 2.74252 57.6158-1.5 404.462-1.5 422.386 20.236 420.071 22.1447 402.597 0.954309 403.755 1.5 57.8382 1.5 58.2734 1.43548 44.9261 5.48198 45.6482 5.00081 1.15728 58.9543ZM423.746 17.1702 426 26.9767 416.802 22.896Z" transform="matrix(1 0 0 -1 561.5 136.5)"/><path d="M540 75.3334C540 71.8356 542.836 69 546.333 69L629.667 69C633.164 69 636 71.8356 636 75.3334L636 100.667C636 104.164 633.164 107 629.667 107L546.333 107C542.836 107 540 104.164 540 100.667Z" stroke="#000000" stroke-width="2" stroke-miterlimit="8" fill="#FFC000" fill-rule="evenodd"/><text fill="#FFFFFF" font-family="Arial,Arial_MSFontService,sans-serif" font-weight="700" font-size="16" transform="translate(557.072 94)">Process </text><path d="M673 75.3334C673 71.8356 675.836 69 679.333 69L762.667 69C766.164 69 769 71.8356 769 75.3334L769 100.667C769 104.164 766.164 107 762.667 107L679.333 107C675.836 107 673 104.164 673 100.667Z" stroke="#000000" stroke-width="2" stroke-miterlimit="8" fill="#0A24CC" fill-rule="evenodd"/><text fill="#FFFFFF" font-family="Arial,Arial_MSFontService,sans-serif" font-weight="700" font-size="16" transform="translate(691.111 94)">Material</text><path d="M190 107.5 190 129.448 187 129.448 187 107.5ZM193 127.948 188.5 136.948 184 127.948Z"/><path d="M42.3175 87.5773 71.6359 50.0034 81.0098 47.0001 307.715 47.0001 318.069 60.269 315.704 62.1145 305.8 49.4228 306.983 50.0001 81.2442 50.0001 81.7019 49.9285 72.9917 52.7192 73.7166 52.2135 44.6826 89.4228ZM319.511 57.2409 321.5 67.1047 312.416 62.7775Z"/><path d="M33.3217 100.572 78.3068 43.4656 92.3774 39.0001 440.878 39.0001 459.037 62.0524 456.681 63.9088 438.972 41.4283 440.15 42.0001 92.6098 42.0001 93.0635 41.9298 79.6536 46.1856 80.3782 45.6841 35.6784 102.428ZM460.466 59.0176 462.5 68.8722 453.396 64.5869Z"/><path d="M7 75.3334C7 71.8356 9.83558 69 13.3334 69L96.6666 69C100.164 69 103 71.8356 103 75.3334L103 100.667C103 104.164 100.164 107 96.6666 107L13.3334 107C9.83558 107 7 104.164 7 100.667Z" stroke="#000000" stroke-width="2" stroke-miterlimit="8" fill="#9100B8" fill-rule="evenodd"/><text fill="#FFFFFF" font-family="Arial,Arial_MSFontService,sans-serif" font-weight="700" font-size="16" transform="translate(37.5829 94)">User</text><path d="M1035 29.5002C1035 25.9102 1037.91 23 1041.5 23L1134.5 23C1138.09 23 1141 25.9102 1141 29.5002L1141 55.4998C1141 59.0898 1138.09 62 1134.5 62L1041.5 62C1037.91 62 1035 59.0898 1035 55.4998Z" stroke="#000000" stroke-width="2" stroke-miterlimit="8" fill="#787F1B" fill-rule="evenodd"/><text fill="#FFFFFF" font-family="Arial,Arial_MSFontService,sans-serif" font-weight="700" font-size="16" transform="translate(1050.12 49)">Data Lake </text><path d="M1031 123.333C1031 119.836 1033.84 117 1037.33 117L1138.67 117C1142.16 117 1145 119.836 1145 123.333L1145 148.667C1145 152.164 1142.16 155 1138.67 155L1037.33 155C1033.84 155 1031 152.164 1031 148.667Z" stroke="#595959" stroke-width="2" stroke-miterlimit="8" fill-rule="evenodd"/><text fill="#FFFFFF" font-family="Arial,Arial_MSFontService,sans-serif" font-weight="700" font-size="16" transform="translate(1044.21 142)">Model Lake </text><path d="M1037.23 87.1904 1082.79 112.625 1081.32 115.245 1035.77 89.8097ZM1082.94 109.275 1088.6 117.591 1078.55 117.133Z"/><path d="M0.673419-1.34034 46.0741 21.4701 44.7272 24.1508-0.673419 1.34034ZM46.0806 18.116 52.1024 26.1775 42.0401 26.158Z" transform="matrix(1 0 0 -1 1036.5 88.6776)"/><text fill="#7F7F7F" font-family="Arial,Arial_MSFontService,sans-serif" font-weight="700" font-size="15" transform="translate(386.161 177)">Parent<tspan font-size="15" x="153.667" y="0">Child</tspan></text><path d="M436 171 533.502 171 533.502 173 436 173ZM526.006 166.47 535.487 172 526.006 177.531C525.529 177.809 524.917 177.648 524.639 177.171 524.36 176.694 524.521 176.081 524.999 175.803L532.999 171.136 532.999 172.864 524.999 168.197C524.521 167.919 524.36 167.307 524.639 166.83 524.917 166.353 525.529 166.191 526.006 166.47Z" fill="#7F7F7F"/><text fill="#7F7F7F" font-family="Arial,Arial_MSFontService,sans-serif" font-weight="400" font-size="15" transform="translate(448.883 168)">references</text></g></svg>