<?xml version="1.0" standalone="no" ?>
<!DOCTYPE svg PUBLIC "-//W3C//DTD SVG 1.1//EN" "http://www.w3.org/Graphics/SVG/1.1/DTD/svg11.dtd">
<svg width="1586px" height="304px" viewBox="0 0 1586 304" style="background-color: #ffffff00" xmlns="http://www.w3.org/2000/svg" xmlns:xlink="http://www.w3.org/1999/xlink" version="1.1" >
<path stroke="none" fill="#000000" transform="matrix(0.166667 0 0 0.166667 -80.4167 -47.3333)" d="M 890.042,1348.14 L 911.642,1360.61 L 911.642,1385.56 L 548.319,1595.32 L 526.719,1557.91 L 890.042,1348.14 Z " />
<text x="0" y="0" stroke="none" fill="#000000" transform="matrix(0.166667 0 0 0.166667 119.624 233.852)" font-style="normal" font-weight="bold" font-size="280px" font-family="Arial" >
Li</text>
<path stroke="none" fill="#000000" transform="matrix(0.166667 0 0 0.166667 -80.4167 -47.3333)" d="M 1183.61,1492.7 L 1162.01,1530.11 L 911.642,1385.56 L 911.642,1360.61 L 933.242,1348.14 L 1183.61,1492.7 Z " />
<path stroke="none" fill="#000000" transform="matrix(0.166667 0 0 0.166667 -80.4167 -47.3333)" d="M 890.042,941.085 L 933.242,916.144 L 933.242,1348.14 L 911.642,1360.61 L 890.042,1348.14 L 890.042,941.085 Z " />
<path stroke="none" fill="#000000" transform="matrix(0.166667 0 0 0.166667 -80.4167 -47.3333)" d="M 526.719,731.321 L 548.319,693.909 L 933.242,916.144 L 890.042,941.085 L 526.719,731.321 Z " />
<path stroke="none" fill="#000000" transform="matrix(0.166667 0 0 0.166667 -80.4167 -47.3333)" d="M 2586.22,1397.67 L 2543.02,1422.61 L 2543.02,965.666 L 2586.22,990.607 L 2586.22,1397.67 Z " />
<path stroke="none" fill="#000000" transform="matrix(0.166667 0 0 0.166667 -80.4167 -47.3333)" d="M 2694.22,1347.78 L 2651.02,1347.78 L 2651.02,1040.49 L 2694.22,1040.49 L 2694.22,1347.78 Z " />
<path stroke="none" fill="#000000" transform="matrix(0.166667 0 0 0.166667 -80.4167 -47.3333)" d="M 2938.74,1601.19 L 2938.74,1651.08 L 2543.02,1422.61 L 2586.22,1397.67 L 2938.74,1601.19 Z " />
<path stroke="none" fill="#000000" transform="matrix(0.166667 0 0 0.166667 -80.4167 -47.3333)" d="M 3291.26,1397.67 L 3334.46,1422.61 L 2938.74,1651.08 L 2938.74,1601.19 L 3291.26,1397.67 Z " />
<path stroke="none" fill="#000000" transform="matrix(0.166667 0 0 0.166667 -80.4167 -47.3333)" d="M 3194.06,1329.08 L 3215.66,1366.49 L 2949.54,1520.14 L 2927.94,1482.72 L 3194.06,1329.08 Z " />
<path stroke="none" fill="#000000" transform="matrix(0.166667 0 0 0.166667 -80.4167 -47.3333)" d="M 3291.26,990.607 L 3312.86,978.137 L 3334.46,990.607 L 3334.46,1422.61 L 3291.26,1397.67 L 3291.26,990.607 Z " />
<path stroke="none" fill="#000000" transform="matrix(0.166667 0 0 0.166667 -80.4167 -47.3333)" d="M 2938.74,787.078 L 2938.74,737.195 L 3312.86,953.195 L 3312.86,978.137 L 3291.26,990.607 L 2938.74,787.078 Z " />
<path stroke="none" fill="#000000" transform="matrix(0.166667 0 0 0.166667 -80.4167 -47.3333)" d="M 2927.94,905.55 L 2949.54,868.138 L 3215.66,1021.78 L 3194.06,1059.2 L 2927.94,905.55 Z " />
<path stroke="none" fill="#000000" transform="matrix(0.166667 0 0 0.166667 -80.4167 -47.3333)" d="M 2586.22,990.607 L 2543.02,965.666 L 2938.74,737.195 L 2938.74,787.078 L 2586.22,990.607 Z " />
<path stroke="none" fill="#000000" transform="matrix(0.166667 0 0 0.166667 -80.4167 -47.3333)" d="M 3686.98,737.195 L 3686.98,787.078 L 3334.46,990.607 L 3312.86,978.137 L 3312.86,953.195 L 3686.98,737.195 Z " />
<path stroke="none" fill="#000000" transform="matrix(0.166667 0 0 0.166667 -80.4167 -47.3333)" d="M 4071.91,959.43 L 4050.31,996.843 L 3686.98,787.078 L 3686.98,737.195 L 4071.91,959.43 Z " />
<path stroke="none" fill="#000000" transform="matrix(0.166667 0 0 0.166667 -80.4167 -47.3333)" d="M 4017.91,1052.96 L 3996.31,1090.37 L 3676.18,905.55 L 3697.78,868.138 L 4017.91,1052.96 Z " />
<path stroke="none" fill="#000000" transform="matrix(0.166667 0 0 0.166667 -80.4167 -47.3333)" d="M 7140.26,1215.64 L 4524.91,1215.64 L 4524.91,1172.64 L 7140.26,1172.64 Z " />
<path stroke="none" fill="#000000" transform="matrix(0.166667 0 0 0.166667 -80.4167 -47.3333)" d="M 7517.26,1194.14 C 7517.26,1194.14 7085.26,1303.14 7085.26,1303.14 C 7085.26,1303.14 7139.26,1241.82 7139.26,1194.14 C 7139.26,1146.01 7085.26,1084.14 7085.26,1084.14 C 7085.26,1084.14 7517.26,1194.14 7517.26,1194.14 C 7517.26,1194.14 7517.26,1194.14 7517.26,1194.14 " />
<path stroke="#000000" stroke-width="1" fill="none" transform="matrix(0.166667 0 0 0.166667 -80.4167 -47.3333)" d="M 7517.26,1194.14 C 7517.26,1194.14 7085.26,1303.14 7085.26,1303.14 C 7085.26,1303.14 7139.26,1241.82 7139.26,1194.14 C 7139.26,1146.01 7085.26,1084.14 7085.26,1084.14 C 7085.26,1084.14 7517.26,1194.14 7517.26,1194.14 C 7517.26,1194.14 7517.26,1194.14 7517.26,1194.14 " />
<path stroke="none" fill="#000000" transform="matrix(0.166667 0 0 0.166667 -80.4167 -47.3333)" d="M 8355.18,502.118 L 8355.18,552 L 7991.86,761.765 L 7970.26,724.353 L 8355.18,502.118 Z " />
<path stroke="none" fill="#000000" transform="matrix(0.166667 0 0 0.166667 -80.4167 -47.3333)" d="M 8729.31,718.117 L 8729.31,743.059 L 8707.71,755.53 L 8355.18,552 L 8355.18,502.118 L 8729.31,718.117 Z " />
<path stroke="none" fill="#000000" transform="matrix(0.166667 0 0 0.166667 -80.4167 -47.3333)" d="M 9103.43,502.118 L 9103.43,552 L 8750.91,755.53 L 8729.31,743.059 L 8729.31,718.117 L 9103.43,502.118 Z " />
<path stroke="none" fill="#000000" transform="matrix(0.166667 0 0 0.166667 -80.4167 -47.3333)" d="M 8750.91,1175.06 L 8707.71,1175.06 L 8707.71,755.53 L 8729.31,743.059 L 8750.91,755.53 L 8750.91,1175.06 Z " />
<path stroke="none" fill="#000000" transform="matrix(0.166667 0 0 0.166667 -80.4167 -47.3333)" d="M 9477.55,718.117 L 9477.55,743.059 L 9455.95,755.53 L 9103.43,552 L 9103.43,502.118 L 9477.55,718.117 Z " />
<text x="0" y="0" stroke="none" fill="#000000" transform="matrix(0.166667 0 0 0.166667 1544.68 58.9265)" font-style="normal" font-weight="bold" font-size="280px" font-family="Arial" >
H</text>
<path stroke="none" fill="#000000" transform="matrix(0.166667 0 0 0.166667 -80.4167 -47.3333)" d="M 9706.68,585.83 L 9728.28,623.242 L 9499.15,755.53 L 9477.55,743.059 L 9477.55,718.117 L 9706.68,585.83 Z " />
<path stroke="none" fill="#000000" transform="matrix(0.166667 0 0 0.166667 -80.4167 -47.3333)" d="M 9499.15,1162.59 L 9477.55,1175.06 L 9455.95,1162.59 L 9455.95,755.53 L 9477.55,743.059 L 9499.15,755.53 L 9499.15,1162.59 Z " />
<path stroke="none" fill="#000000" transform="matrix(0.166667 0 0 0.166667 -80.4167 -47.3333)" d="M 9125.03,1403.53 L 9081.83,1378.59 L 9455.95,1162.59 L 9477.55,1175.06 L 9477.55,1200 L 9125.03,1403.53 Z " />
<path stroke="none" fill="#000000" transform="matrix(0.166667 0 0 0.166667 -80.4167 -47.3333)" d="M 9222.23,1472.12 L 9200.63,1434.71 L 9466.75,1281.06 L 9488.35,1318.47 L 9222.23,1472.12 Z " />
<path stroke="none" fill="#000000" transform="matrix(0.166667 0 0 0.166667 -80.4167 -47.3333)" d="M 9125.03,1810.59 L 9081.83,1835.53 L 9081.83,1378.59 L 9125.03,1403.53 L 9125.03,1810.59 Z " />
<path stroke="none" fill="#000000" transform="matrix(0.166667 0 0 0.166667 -80.4167 -47.3333)" d="M 9477.55,2014.12 L 9477.55,2064 L 9081.83,1835.53 L 9125.03,1810.59 L 9477.55,2014.12 Z " />
<path stroke="none" fill="#000000" transform="matrix(0.166667 0 0 0.166667 -80.4167 -47.3333)" d="M 9488.35,1895.65 L 9466.75,1933.06 L 9200.63,1779.41 L 9222.23,1742 L 9488.35,1895.65 Z " />
<path stroke="none" fill="#000000" transform="matrix(0.166667 0 0 0.166667 -80.4167 -47.3333)" d="M 9830.07,1810.59 L 9873.27,1835.53 L 9477.55,2064 L 9477.55,2014.12 L 9830.07,1810.59 Z " />
<path stroke="none" fill="#000000" transform="matrix(0.166667 0 0 0.166667 -80.4167 -47.3333)" d="M 9830.07,1403.53 L 9873.27,1378.59 L 9873.27,1835.53 L 9830.07,1810.59 L 9830.07,1403.53 Z " />
<path stroke="none" fill="#000000" transform="matrix(0.166667 0 0 0.166667 -80.4167 -47.3333)" d="M 9722.08,1453.41 L 9765.28,1453.41 L 9765.28,1760.7 L 9722.08,1760.7 L 9722.08,1453.41 Z " />
<path stroke="none" fill="#000000" transform="matrix(0.166667 0 0 0.166667 -80.4167 -47.3333)" d="M 9477.55,1200 L 9477.55,1175.06 L 9499.15,1162.59 L 9873.27,1378.59 L 9830.07,1403.53 L 9477.55,1200 Z " />
<path stroke="#000000" stroke-width="43" fill="none" transform="matrix(0.166667 0 0 0.166667 -80.4167 -47.3333)" d="M 9584.87,915.918 A 561.6,561.6 0 0 0 9594.67,354.404" />
<text x="0" y="0" stroke="none" fill="#000000" transform="matrix(0.166667 0 0 0.166667 1523.14 114.704)" font-style="normal" font-weight="bold" font-size="210px" font-family="Arial" >
n</text>
<path stroke="#000000" stroke-width="43" fill="none" transform="matrix(0.166667 0 0 0.166667 -80.4167 -47.3333)" d="M 8991.61,354.259 A 561.6,561.6 0 0 0 8991.61,915.859" />
<text x="0" y="0" stroke="none" fill="#000000" transform="matrix(0.166667 0 0 0.166667 749.235 101.252)" font-style="normal" font-weight="bold" font-size="300px" font-family="Arial" >
i) </text>
<text x="0" y="0" stroke="none" fill="#000000" transform="matrix(0.166667 0 0 0.166667 793.668 101.252)" font-style="normal" font-weight="bold" font-size="300px" font-family="Arial" >
Toluene/THF</text>
<text x="0" y="0" stroke="none" fill="#000000" transform="matrix(0.166667 0 0 0.166667 807.572 234.877)" font-style="normal" font-weight="bold" font-size="300px" font-family="Arial" >
ii) </text>
<text x="0" y="0" stroke="none" fill="#000000" transform="matrix(0.166667 0 0 0.166667 865.897 234.877)" font-style="normal" font-weight="bold" font-size="300px" font-family="Arial" >
nBuOH</text>
<text x="0" y="0" stroke="none" fill="#000000" transform="matrix(0.166667 0 0 0.166667 238.669 168.564)" font-style="normal" font-weight="bold" font-size="300px" font-family="Arial" >
+</text>
</svg>
